<svg xmlns="http://www.w3.org/2000/svg" xmlns:xlink="http://www.w3.org/1999/xlink" width="200" height="200" version="1.1" viewBox="0 0 200 200"><title>timerchart-2</title><desc>Created with Sketch.</desc><g id="Desktop" fill="none" fill-rule="evenodd" stroke="none" stroke-width="1"><g id="Artboard" transform="translate(-254.000000, -54.000000)"><g id="timerchart-2" transform="translate(254.000000, 54.000000)"><g id="Group"><path id="Path" fill="#F5A623" d="M98.3463172,199.986603 C43.8805717,199.103524 0,154.67619 0,100 L100,100 L100,200 L98.3463172,199.986603 Z"/><path id="Path" fill="#EE5366" d="M98.3463172,99.9866029 C43.8805717,99.1035238 0,54.6761902 0,0 L100,0 L100,100 L98.3463172,99.9866029 Z" transform="translate(50.000000, 50.000000) rotate(90.000000) translate(-50.000000, -50.000000)"/><path id="Path" fill="#3CF" d="M198.346317,99.9866029 C143.880572,99.1035238 100,54.6761902 100,0 L200,0 L200,100 L198.346317,99.9866029 Z" opacity=".501" transform="translate(150.000000, 50.000000) scale(-1, 1) rotate(90.000000) translate(-150.000000, -50.000000)"/><path id="Path" fill="#50E3C2" d="M198.346317,199.986603 C143.880572,199.103524 100,154.67619 100,100 L200,100 L200,200 L198.346317,199.986603 Z" opacity=".501" transform="translate(150.000000, 150.000000) scale(-1, -1) rotate(90.000000) translate(-150.000000, -150.000000)"/></g><circle id="Oval" cx="100" cy="100" r="50" fill="#FFF"/></g></g></g></svg>